<?xml version="1.0" encoding="utf-8"?>
<!-- Generator: Adobe Illustrator 24.1.2, SVG Export Plug-In . SVG Version: 6.00 Build 0)  -->
<svg version="1.1" id="Layer_1" xmlns="http://www.w3.org/2000/svg" xmlns:xlink="http://www.w3.org/1999/xlink" x="0px" y="0px"
	 viewBox="0 0 1366 768" style="enable-background:new 0 0 1366 768;" xml:space="preserve">
<style type="text/css">
	.st0{fill:#AED6D6;}
	.st1{fill:#606060;}
	.st2{font-family:'AvenirNext-DemiBold';}
	.st3{font-size:84px;}
	.st4{fill:#3F3F3F;}
	.st5{font-family:'JavaneseText';}
	.st6{font-size:27px;}
</style>
<g>
	<g>
		<path class="st0" d="M703.72,424.92c16.96-9.45,33.03-19.11,48.98-29.17c15.99-10,31.77-20.25,48.89-29.8
			c8.67-4.62,17.58-9.31,27.74-12.98c5.1-1.83,10.53-3.47,16.55-4.57c3-0.56,6.17-0.93,9.53-1.03c1.63-0.11,3.41-0.02,5.15,0.03
			l1.31,0.05l0.96,0.06l1.87,0.13c19.98,1.28,39.97,5.17,58.4,9.57c18.51,4.4,35.19,8.45,52.28,10.17
			c8.65,0.88,16.95,1.33,25.65,1.11c8.63-0.25,17.42-0.85,26.25-2.03c17.71-2.15,35.62-6.03,53.64-10.66
			c9.02-2.32,18.05-4.9,27.15-7.58l27.53-8.39c-7.03,6.75-14.61,12.84-22.47,18.57c-7.86,5.75-16.08,11.02-24.55,15.95
			c-17,9.75-35.18,17.87-54.52,23.65c-9.68,2.83-19.63,5.19-29.86,6.57c-5.11,0.75-10.29,1.3-15.51,1.62
			c-5.28,0.28-10.42,0.34-15.59,0.28c-10.36-0.15-20.73-1.29-30.73-2.91c-10.01-1.67-19.62-3.86-28.81-6.07
			c-18.38-4.47-35.49-8.61-53.19-11.41l-1.65-0.29l-0.8-0.14l-0.46-0.06c-0.63-0.07-1.2-0.23-1.94-0.23
			c-0.71-0.03-1.39-0.12-2.2-0.07c-0.78,0.03-1.55-0.03-2.42,0.06c-3.37,0.18-7.17,0.79-11.12,1.72c-3.96,0.97-8.1,2.12-12.31,3.4
			c-4.22,1.3-8.49,2.81-12.81,4.33c-17.36,6.12-35.33,13.09-53.84,18.73C742.26,419.14,723.14,423.75,703.72,424.92z"/>
		<path class="st0" d="M716.81,387.84l24.48-21.04c4-3.52,8-6.99,11.92-10.57c3.98-3.5,7.89-7.07,11.83-10.64l11.92-10.69
			c4.04-3.53,8.15-7.09,12.39-10.62c8.53-6.94,17.74-13.93,28.58-19.63c5.4-2.85,11.17-5.46,17.27-7.36
			c6.09-1.93,12.43-3.31,18.79-4.12c1.59-0.22,3.18-0.41,4.77-0.49c1.58-0.1,3.19-0.26,4.76-0.27l4.71-0.1l4.26,0.07
			c5.69,0.07,11.34,0.38,16.99,0.78c22.54,1.78,44.43,6.19,65.06,10.75c20.69,4.52,40.27,8.98,59.13,10.23
			c9.36,0.47,19.23,0.41,29.23-0.41c10.01-0.72,20.17-1.85,30.37-3.31c20.41-2.93,41.02-6.77,61.61-11.27l15.46-3.48l15.46-3.75
			c10.3-2.63,20.59-5.34,30.88-8.76c-8.18,7.2-17.39,13.17-26.7,18.79c-9.35,5.6-18.99,10.68-28.81,15.38
			c-19.65,9.4-40.03,17.36-61.2,23.63c-21.24,6.11-43.1,10.91-66.95,11.53c-23.81,0.45-46.17-3.84-67.08-8.12
			c-20.98-4.42-40.82-8.82-60.65-11.57l-7.42-0.94c-2.48-0.35-4.94-0.5-7.42-0.76l-3.71-0.38l-3.27-0.23
			c-1.09-0.11-2.15-0.07-3.22-0.11c-1.08-0.04-2.14-0.05-3.2-0.02c-8.52,0.05-16.75,1.72-25.38,4.73
			c-8.56,3.1-17.49,7.44-26.55,12.46c-4.57,2.44-9.17,5-13.83,7.62l-14.19,7.7c-4.78,2.53-9.66,4.97-14.54,7.38
			c-4.95,2.31-9.86,4.65-14.91,6.74C737.6,381.25,727.35,385,716.81,387.84z"/>
		<path class="st0" d="M738.62,339.86c16.05-18.23,30.14-36.87,46.87-54.87c4.19-4.49,8.54-8.92,13.24-13.15
			c4.67-4.26,9.62-8.4,14.98-12.19c10.59-7.75,23.07-14.05,36.59-17.97c6.77-1.92,13.78-3.05,20.78-3.66
			c3.51-0.35,7.01-0.41,10.51-0.42l5.21,0.2l2.54,0.13l2.28,0.16c12.18,0.79,24.25,2.12,36.22,3.61c5.99,0.7,11.95,1.54,17.88,2.44
			l17.72,2.69l34.88,5.74c11.4,1.98,22.88,3.65,33.22,4.58c2.59,0.24,5.01,0.33,7.24,0.36l1.63-0.01l2.12-0.12l4.23-0.23
			c5.68-0.43,11.4-0.74,17.15-1.28c5.75-0.48,11.53-1.09,17.31-1.73c5.79-0.62,11.6-1.24,17.4-1.95
			c11.61-1.45,23.26-2.91,34.92-4.54c23.31-3.21,46.66-6.79,69.99-10.64c11.66-1.96,23.32-4,34.94-6.29
			c11.6-2.38,23.23-4.63,34.53-8.66c-4.69,3.79-9.94,6.94-15.23,9.88c-5.3,2.94-10.75,5.58-16.21,8.19
			c-10.97,5.07-22.14,9.67-33.41,13.94c-22.54,8.56-45.5,15.79-68.72,22.2c-11.62,3.17-23.3,6.17-35.11,8.78
			c-11.79,2.71-23.68,5.07-35.75,7.09c-6.02,1.02-12.11,1.99-18.26,2.74l-4.64,0.53l-2.32,0.26l-2.82,0.25
			c-3.71,0.26-7.23,0.36-10.57,0.31c-6.75-0.01-13.06-0.52-19.29-1.11c-6.22-0.59-12.3-1.3-18.33-2.05
			c-12.02-1.69-23.82-3.48-35.52-5.39l-34.84-5.82c-5.77-0.97-11.53-1.91-17.28-2.78l-17.2-2.66l-2.15-0.31l-1.9-0.24l-3.68-0.45
			c-2.43-0.13-4.88-0.43-7.3-0.44c-4.85-0.12-9.71,0.07-14.51,0.88c-9.65,1.37-19.3,4.54-28.98,9.19
			c-4.81,2.35-9.65,4.96-14.49,7.82c-4.81,2.89-9.64,6.01-14.5,9.21C780.65,314.92,760.87,329.84,738.62,339.86z"/>
		<path class="st0" d="M763.87,283.78c5.22-12.13,11.53-23.72,18.82-34.93c3.7-5.55,7.64-11.03,11.97-16.27
			c4.28-5.29,8.97-10.34,14.04-15.12c10.13-9.55,22.01-17.95,35.32-24.03c6.62-3.11,13.6-5.51,20.69-7.4l5.35-1.31l5.39-1.09
			c3.61-0.59,7.23-1.1,10.85-1.44c7.24-0.68,14.47-0.98,21.62-0.71l5.34,0.28l5.02,0.34l9.89,0.78c6.59,0.54,13.12,1.35,19.64,2.1
			c6.51,0.8,13.02,1.54,19.46,2.54c12.9,1.91,25.72,3.84,38.35,6.05l18.83,3.08c6.21,1.06,12.38,2.05,18.41,2.85
			c6,0.75,11.97,1.52,17.29,1.81c1.35,0.09,2.6,0.11,3.81,0.13l1.8-0.01l2.34-0.13l9.41-0.6c12.61-0.79,25.35-1.8,38.08-2.94
			c12.75-1.06,25.52-2.2,38.29-3.45c12.79-1.12,25.56-2.44,38.36-3.68c25.58-2.55,51.18-5.13,76.74-8.1
			c6.4-0.71,12.78-1.48,19.16-2.31c6.39-0.77,12.76-1.65,19.12-2.57c6.37-0.9,12.71-1.94,19.04-3.1c6.29-1.27,12.62-2.47,18.68-4.83
			c-5.24,3.93-11.25,6.8-17.22,9.49c-5.99,2.68-12.11,5.04-18.25,7.31c-6.14,2.25-12.34,4.33-18.54,6.38
			c-6.22,1.99-12.46,3.89-18.71,5.76c-25.03,7.31-50.29,13.59-75.68,19.19c-12.69,2.83-25.44,5.36-38.2,7.9
			c-12.78,2.39-25.59,4.7-38.45,6.84c-12.88,2.03-25.78,3.98-38.86,5.64l-9.87,1.11l-2.49,0.26l-3.03,0.27
			c-2.01,0.14-3.99,0.25-5.86,0.27c-7.59,0.18-14.49-0.22-21.32-0.84c-6.8-0.6-13.42-1.36-19.97-2.17c-6.55-0.86-13-1.86-19.43-2.83
			c-12.86-1.88-25.5-4.16-38.11-6.19c-12.59-2.09-25.1-4.24-37.57-6.11l-9.34-1.44l-4.6-0.66l-4.3-0.56
			c-5.72-0.62-11.41-1.15-17.07-1.19c-5.65-0.03-11.26,0.2-16.81,0.86c-5.56,0.66-11.02,1.81-16.48,3.24
			c-10.88,2.97-21.54,7.7-31.88,13.83c-10.35,6.13-20.32,13.66-30.09,21.8c-4.88,4.08-9.68,8.35-14.51,12.68L763.87,283.78z"/>
	</g>
	<g>
		<path class="st0" d="M662.28,422.74c-16.96-9.45-33.03-19.11-48.98-29.17c-15.99-10-31.77-20.25-48.89-29.8
			c-8.67-4.62-17.58-9.31-27.74-12.98c-5.1-1.83-10.53-3.47-16.55-4.57c-3-0.56-6.17-0.93-9.53-1.03c-1.63-0.11-3.41-0.02-5.15,0.03
			l-1.31,0.05l-0.96,0.06l-1.87,0.13c-19.98,1.28-39.97,5.17-58.4,9.57c-18.51,4.4-35.19,8.45-52.28,10.17
			c-8.65,0.88-16.95,1.33-25.65,1.11c-8.63-0.25-17.42-0.85-26.25-2.03c-17.71-2.15-35.62-6.03-53.64-10.66
			c-9.02-2.32-18.05-4.9-27.15-7.58l-27.53-8.39c7.03,6.75,14.61,12.84,22.47,18.57c7.86,5.75,16.08,11.02,24.55,15.95
			c17,9.75,35.18,17.87,54.52,23.65c9.68,2.83,19.63,5.19,29.86,6.57c5.11,0.75,10.29,1.3,15.51,1.62
			c5.28,0.28,10.42,0.34,15.59,0.28c10.36-0.15,20.73-1.28,30.73-2.91c10.01-1.67,19.62-3.86,28.81-6.07
			c18.38-4.47,35.49-8.61,53.19-11.41l1.65-0.29l0.8-0.14l0.46-0.06c0.63-0.07,1.2-0.23,1.94-0.23c0.71-0.03,1.39-0.12,2.2-0.07
			c0.78,0.03,1.55-0.03,2.42,0.06c3.37,0.18,7.17,0.79,11.12,1.72c3.96,0.97,8.1,2.12,12.31,3.4c4.22,1.3,8.49,2.81,12.81,4.33
			c17.36,6.12,35.33,13.09,53.84,18.73C623.74,416.96,642.86,421.57,662.28,422.74z"/>
		<path class="st0" d="M649.19,385.66l-24.48-21.04c-4-3.52-8-6.99-11.92-10.57c-3.98-3.5-7.89-7.07-11.83-10.64l-11.92-10.69
			c-4.04-3.53-8.15-7.09-12.39-10.62c-8.53-6.94-17.74-13.93-28.58-19.63c-5.4-2.85-11.17-5.46-17.27-7.36
			c-6.09-1.93-12.43-3.31-18.79-4.12c-1.59-0.22-3.18-0.41-4.77-0.49c-1.58-0.1-3.19-0.26-4.76-0.27l-4.71-0.1l-4.26,0.07
			c-5.69,0.07-11.34,0.38-16.99,0.78c-22.54,1.78-44.43,6.19-65.06,10.75c-20.69,4.52-40.27,8.98-59.13,10.23
			c-9.36,0.47-19.23,0.41-29.23-0.41c-10.01-0.72-20.17-1.85-30.37-3.31c-20.41-2.93-41.02-6.77-61.61-11.27l-15.46-3.48
			l-15.46-3.75c-10.3-2.63-20.59-5.34-30.88-8.76c8.18,7.2,17.39,13.17,26.7,18.79c9.35,5.6,18.99,10.68,28.81,15.38
			c19.65,9.4,40.03,17.36,61.2,23.63c21.24,6.11,43.1,10.91,66.95,11.53c23.81,0.45,46.17-3.84,67.08-8.12
			c20.98-4.42,40.82-8.82,60.65-11.57l7.42-0.94c2.48-0.35,4.94-0.5,7.42-0.76l3.71-0.38l3.27-0.23c1.09-0.11,2.15-0.07,3.22-0.11
			c1.08-0.04,2.14-0.05,3.2-0.02c8.52,0.05,16.75,1.72,25.38,4.73c8.56,3.1,17.49,7.44,26.55,12.46c4.57,2.44,9.17,5,13.83,7.62
			l14.19,7.7c4.78,2.53,9.66,4.97,14.54,7.38c4.95,2.31,9.86,4.65,14.91,6.74C628.4,379.07,638.65,382.82,649.19,385.66z"/>
		<path class="st0" d="M627.38,337.67c-16.05-18.23-30.14-36.87-46.87-54.87c-4.19-4.49-8.54-8.92-13.24-13.15
			c-4.67-4.26-9.62-8.4-14.98-12.19c-10.59-7.75-23.07-14.05-36.59-17.97c-6.77-1.92-13.78-3.05-20.78-3.66
			c-3.51-0.35-7.01-0.41-10.51-0.42l-5.21,0.2l-2.54,0.13l-2.28,0.16c-12.18,0.79-24.25,2.12-36.22,3.61
			c-5.99,0.7-11.95,1.54-17.88,2.44l-17.72,2.69l-34.88,5.74c-11.4,1.98-22.88,3.65-33.22,4.58c-2.59,0.24-5.01,0.33-7.24,0.36
			l-1.63-0.01l-2.12-0.12l-4.23-0.23c-5.68-0.43-11.4-0.74-17.15-1.28c-5.75-0.48-11.53-1.09-17.31-1.73
			c-5.79-0.62-11.6-1.24-17.4-1.95c-11.61-1.45-23.26-2.91-34.92-4.54c-23.31-3.21-46.66-6.79-69.99-10.64
			c-11.66-1.96-23.32-4-34.94-6.29c-11.6-2.38-23.23-4.63-34.53-8.66c4.69,3.79,9.94,6.94,15.23,9.88
			c5.3,2.94,10.75,5.58,16.21,8.19c10.97,5.07,22.14,9.67,33.41,13.94c22.54,8.56,45.5,15.79,68.72,22.2
			c11.62,3.17,23.3,6.17,35.11,8.78c11.79,2.71,23.68,5.07,35.75,7.09c6.02,1.02,12.11,1.99,18.26,2.74l4.64,0.53l2.32,0.26
			l2.82,0.25c3.71,0.26,7.23,0.36,10.57,0.31c6.75-0.01,13.06-0.52,19.29-1.11c6.22-0.59,12.3-1.3,18.33-2.05
			c12.02-1.69,23.82-3.48,35.52-5.39l34.84-5.82c5.77-0.97,11.53-1.91,17.28-2.78l17.2-2.66l2.15-0.31l1.89-0.24l3.68-0.45
			c2.43-0.13,4.88-0.43,7.3-0.44c4.85-0.12,9.71,0.07,14.51,0.88c9.65,1.37,19.3,4.54,28.98,9.19c4.81,2.35,9.65,4.96,14.49,7.82
			c4.81,2.89,9.64,6.01,14.5,9.21C585.35,312.74,605.13,327.66,627.38,337.67z"/>
		<path class="st0" d="M602.13,281.6c-5.22-12.13-11.53-23.72-18.82-34.93c-3.7-5.55-7.64-11.03-11.97-16.27
			c-4.28-5.29-8.97-10.34-14.04-15.12c-10.13-9.55-22.01-17.95-35.32-24.03c-6.62-3.11-13.6-5.51-20.69-7.4l-5.35-1.31l-5.39-1.09
			c-3.61-0.59-7.23-1.1-10.85-1.44c-7.24-0.68-14.47-0.98-21.62-0.71l-5.34,0.28l-5.02,0.34l-9.89,0.78
			c-6.59,0.54-13.12,1.35-19.64,2.1c-6.51,0.8-13.02,1.54-19.46,2.54c-12.9,1.91-25.72,3.84-38.35,6.05l-18.83,3.08
			c-6.21,1.06-12.38,2.05-18.41,2.85c-6,0.75-11.97,1.52-17.29,1.81c-1.35,0.09-2.6,0.11-3.81,0.13l-1.8-0.01l-2.34-0.13l-9.41-0.6
			c-12.61-0.79-25.35-1.8-38.08-2.94c-12.75-1.06-25.52-2.2-38.29-3.45c-12.79-1.12-25.56-2.44-38.36-3.68
			c-25.58-2.55-51.18-5.13-76.74-8.1c-6.4-0.71-12.78-1.48-19.16-2.31c-6.39-0.77-12.76-1.65-19.12-2.57
			c-6.37-0.9-12.71-1.94-19.04-3.1c-6.29-1.27-12.62-2.47-18.68-4.83c5.24,3.93,11.25,6.8,17.22,9.49
			c5.99,2.68,12.11,5.04,18.25,7.31c6.14,2.25,12.34,4.33,18.54,6.38c6.22,1.99,12.46,3.89,18.71,5.76
			c25.03,7.31,50.29,13.59,75.68,19.19c12.69,2.83,25.44,5.36,38.2,7.9c12.78,2.39,25.59,4.7,38.45,6.84
			c12.88,2.03,25.78,3.98,38.86,5.64l9.87,1.11l2.49,0.26l3.03,0.27c2.01,0.14,3.99,0.25,5.86,0.27c7.59,0.18,14.49-0.22,21.32-0.84
			c6.8-0.6,13.42-1.36,19.97-2.17c6.55-0.86,13-1.86,19.43-2.83c12.86-1.88,25.5-4.16,38.11-6.19c12.59-2.09,25.1-4.24,37.57-6.11
			l9.34-1.44l4.6-0.66l4.3-0.56c5.72-0.62,11.41-1.15,17.07-1.19c5.65-0.03,11.26,0.2,16.81,0.86c5.56,0.66,11.02,1.81,16.48,3.24
			c10.88,2.97,21.54,7.7,31.88,13.83c10.35,6.13,20.32,13.66,30.09,21.8c4.88,4.08,9.68,8.35,14.51,12.68L602.13,281.6z"/>
	</g>
</g>
<text transform="matrix(1 0 0 1 510.1929 528.1164)" class="st1 st2 st3">HYPNOS</text>
</svg>
